<svg width="165" height="50" viewBox="0 0 165 50" fill="none" xmlns="http://www.w3.org/2000/svg">
<path d="M0 38.0394L9.70005 0.74588H21.8251L31.5252 38.0394H24.3556L22.3523 29.8349H9.17288L7.1696 38.0394H0ZM10.8071 23.3351H20.718L16.237 5.16783H15.2881L10.8071 23.3351Z" fill="#5D5FEF"/>
<path d="M45.444 38.4656C43.4144 38.4656 41.622 37.9862 40.0932 37.0538C38.5644 36.1215 37.3782 34.8162 36.5348 33.138C35.6913 31.4598 35.2695 29.5418 35.2695 27.3841V11.6143H41.912V26.8514C41.912 28.8492 42.3864 30.341 43.3617 31.3266C44.337 32.3122 45.7076 32.8183 47.5 32.8183C49.5297 32.8183 51.1112 32.1257 52.2446 30.7672C53.378 29.4086 53.9316 27.4907 53.9316 25.04V11.6143H60.574V38.0394H54.037V34.5765H53.0881C52.6664 35.4555 51.8756 36.3346 50.7158 37.187C49.556 38.0394 47.79 38.4656 45.444 38.4656Z" fill="#5D5FEF"/>
<path d="M78.5236 38.7853C76.4413 38.7853 74.5171 38.2525 72.6983 37.2136C70.8795 36.1748 69.4298 34.6297 68.3491 32.6052C67.2684 30.5807 66.7148 28.13 66.7148 25.2531V24.4006C66.7148 21.5237 67.2684 19.073 68.3491 17.0485C69.4298 15.024 70.8795 13.479 72.6719 12.4401C74.4643 11.4012 76.4149 10.8684 78.5236 10.8684C80.1051 10.8684 81.4231 11.0549 82.5038 11.4278C83.5845 11.8008 84.4543 12.2802 85.1133 12.8396C85.7723 13.399 86.2995 14.0117 86.6421 14.651H87.591V0.74588H94.2335V38.0394H87.6965V34.8428H86.7476C86.1413 35.8285 85.2187 36.7342 83.9799 37.5599C82.741 38.3591 80.9223 38.7853 78.5236 38.7853ZM80.5269 32.9249C82.5565 32.9249 84.2698 32.2589 85.6405 30.927C87.0111 29.5951 87.6965 27.6505 87.6965 25.0932V24.5605C87.6965 22.0032 87.0111 20.0586 85.6668 18.7267C84.3225 17.3948 82.6092 16.7288 80.5269 16.7288C78.4972 16.7288 76.7839 17.3948 75.4133 18.7267C74.0426 20.0586 73.3573 22.0032 73.3573 24.5605V25.0932C73.3573 27.6505 74.0426 29.5951 75.4133 30.927C76.7839 32.2589 78.4972 32.9249 80.5269 32.9249Z" fill="#5D5FEF"/>
<path d="M104.881 8.52424C103.695 8.52424 102.667 8.12467 101.85 7.35216C101.033 6.57965 100.611 5.54076 100.611 4.26212C100.611 2.98348 101.033 1.94459 101.85 1.17208C102.667 0.399574 103.695 0 104.881 0C106.12 0 107.122 0.399574 107.939 1.17208C108.756 1.94459 109.152 2.98348 109.152 4.26212C109.152 5.54076 108.756 6.57965 107.939 7.35216C107.122 8.12467 106.12 8.52424 104.881 8.52424ZM101.56 38.0394V11.6143H108.203V38.0394H101.56Z" fill="#5D5FEF"/>
<path d="M125.547 38.0394C123.834 38.0394 122.437 37.5067 121.356 36.4145C120.275 35.3223 119.748 33.8839 119.748 32.0725V17.155H113.211V11.6143H119.748V3.4097H126.39V11.6143H133.56V17.155H126.39V30.9004C126.39 31.9659 126.891 32.4987 127.866 32.4987H132.927V38.0394H125.547Z" fill="#5D5FEF"/>
<path d="M141.942 48.6947V42.8343H156.176C157.151 42.8343 157.652 42.3016 157.652 41.236V34.5765H156.703C156.413 35.1891 155.992 35.7752 155.385 36.3879C154.779 37.0005 153.988 37.48 152.96 37.8796C151.932 38.2792 150.641 38.4656 149.059 38.4656C147.03 38.4656 145.237 37.9862 143.708 37.0538C142.18 36.1215 140.993 34.8162 140.15 33.138C139.307 31.4598 138.885 29.5418 138.885 27.3841V11.6143H145.527V26.8514C145.527 28.8492 146.002 30.341 146.977 31.3266C147.952 32.3122 149.323 32.8183 151.115 32.8183C153.145 32.8183 154.726 32.1257 155.86 30.7672C156.993 29.4086 157.547 27.4907 157.547 25.04V11.6143H164.189V42.7278C164.189 44.5392 163.662 45.9776 162.608 47.0698C161.553 48.162 160.156 48.6947 158.39 48.6947H141.942Z" fill="#5D5FEF"/>
<path d="M15.7623 50C14.5762 50 13.5482 49.6004 12.7311 48.8279C11.9139 48.0554 11.4922 47.0165 11.4922 45.7379C11.4922 44.4593 11.9139 43.4204 12.7311 42.6479C13.5482 41.8753 14.5762 41.4758 15.7623 41.4758C17.0012 41.4758 18.0028 41.8753 18.8199 42.6479C19.6371 43.4204 20.0325 44.4593 20.0325 45.7379C20.0325 47.0165 19.6371 48.0554 18.8199 48.8279C18.0028 49.6004 16.9748 50 15.7623 50Z" fill="#5D5FEF"/>
</svg>
